<svg width="110" height="104" viewBox="0 0 110 104" fill="none" xmlns="http://www.w3.org/2000/svg">
<path d="M73.1303 0.549805C76.3359 0.549805 79.4102 1.63394 81.677 3.56372C83.9437 5.4935 85.2171 8.11085 85.2171 10.84V36.5654H97.304C100.51 36.5654 103.584 37.6495 105.851 39.5793C108.117 41.5091 109.391 44.1264 109.391 46.8555V97.7918C109.391 98.5351 109.219 99.271 108.885 99.9577C108.551 100.644 108.061 101.268 107.444 101.794C106.826 102.319 106.094 102.736 105.287 103.021C104.481 103.305 103.616 103.451 102.743 103.451H7.2569C6.3839 103.451 5.51946 103.305 4.71291 103.021C3.90637 102.736 3.17352 102.319 2.55622 101.794C1.93892 101.268 1.44924 100.644 1.11516 99.9577C0.781081 99.271 0.609131 98.5351 0.609131 97.7918V10.84C0.609131 8.11085 1.88256 5.4935 4.14929 3.56372C6.41601 1.63394 9.49035 0.549805 12.696 0.549805H73.1303ZM73.1303 10.84H12.696V93.1613H24.7828V77.726C24.7828 73.6323 26.693 69.7063 30.0931 66.8117C33.4932 63.917 38.1047 62.2908 42.9131 62.2908C47.7216 62.2908 52.3331 63.917 55.7332 66.8117C59.1333 69.7063 61.0434 73.6323 61.0434 77.726V93.1613H73.1303V10.84ZM97.304 46.8555H85.2171V93.1613H97.304V46.8555ZM42.9131 72.5809C41.4329 72.5811 40.0042 73.0438 38.898 73.8812C37.7919 74.7186 37.0852 75.8725 36.912 77.124L36.8697 77.726V93.1613H48.9566V77.726C48.9566 76.3615 48.3198 75.0528 47.1865 74.0879C46.0531 73.123 44.5159 72.5809 42.9131 72.5809ZM42.9131 21.1301C44.5159 21.1301 46.0531 21.6722 47.1865 22.6371C48.3198 23.602 48.9566 24.9107 48.9566 26.2752V31.4203H55C56.6028 31.4203 58.14 31.9624 59.2733 32.9273C60.4067 33.8921 61.0434 35.2008 61.0434 36.5654C61.0434 37.9299 60.4067 39.2386 59.2733 40.2035C58.14 41.1684 56.6028 41.7105 55 41.7105H48.9566V46.8555C48.9566 48.2201 48.3198 49.5288 47.1865 50.4937C46.0531 51.4585 44.5159 52.0006 42.9131 52.0006C41.3103 52.0006 39.7731 51.4585 38.6398 50.4937C37.5064 49.5288 36.8697 48.2201 36.8697 46.8555V41.7105H30.8263C29.2235 41.7105 27.6863 41.1684 26.5529 40.2035C25.4196 39.2386 24.7828 37.9299 24.7828 36.5654C24.7828 35.2008 25.4196 33.8921 26.5529 32.9273C27.6863 31.9624 29.2235 31.4203 30.8263 31.4203H36.8697V26.2752C36.8697 24.9107 37.5064 23.602 38.6398 22.6371C39.7731 21.6722 41.3103 21.1301 42.9131 21.1301Z" fill="black"/>
</svg>
