<svg width="98" height="107" viewBox="0 0 98 107" fill="none" xmlns="http://www.w3.org/2000/svg">
<path d="M42.9861 0.371582C53.29 0.372254 63.2417 4.12106 70.9851 10.9187C78.7285 17.7164 83.7348 27.0988 85.0701 37.3157L97.0046 56.0874C97.7897 57.3233 97.6305 59.1639 95.8112 59.9489L85.4202 64.3939V79.9353C85.4202 82.7489 84.3025 85.4472 82.313 87.4367C80.3235 89.4262 77.6252 90.5438 74.8116 90.5438H64.2085L64.2031 106.457H16.4649V86.8627C16.4649 80.6037 14.1522 74.6788 9.8611 69.3321C4.86291 63.0915 1.72957 55.5657 0.822082 47.6218C-0.0854025 39.678 1.2699 31.6394 4.73184 24.4323C8.19377 17.2251 13.6215 11.1427 20.3895 6.88581C27.1576 2.62892 34.9906 0.37078 42.9861 0.371582ZM42.9861 10.9801C36.9901 10.9798 31.116 12.6734 26.0404 15.8658C20.9649 19.0582 16.8944 23.6194 14.298 29.0241C11.7015 34.4288 10.6847 40.4571 11.3646 46.4144C12.0445 52.3718 14.3935 58.0159 18.141 62.6965C23.9439 69.9315 27.0734 78.169 27.0734 86.8627V95.8481H53.5946L53.6052 79.9353H74.8116V57.4029L83.0332 53.8809L74.8488 41.0181L74.5464 38.6736C73.5423 31.0137 69.7867 23.9805 63.98 18.8852C58.1732 13.7898 50.7115 10.9802 42.9861 10.9801ZM40.1749 30.94L42.9861 33.7512L45.7974 30.94C47.5477 29.2487 49.8923 28.3127 52.3261 28.3333C54.76 28.354 57.0883 29.3297 58.8097 31.0504C60.5311 32.7711 61.5078 35.0991 61.5294 37.5329C61.5511 39.9667 60.6159 42.3117 58.9254 44.0627L42.9861 60.0073L27.0469 44.0627C26.1605 43.2062 25.4535 42.1818 24.9673 41.0492C24.481 39.9166 24.2252 38.6986 24.2147 37.466C24.2043 36.2335 24.4394 35.0113 24.9063 33.8706C25.3733 32.7299 26.0628 31.6936 26.9345 30.8223C27.8062 29.9509 28.8428 29.2618 29.9836 28.7953C31.1245 28.3288 32.3469 28.0942 33.5794 28.1052C34.8119 28.1161 36.0299 28.3725 37.1623 28.8592C38.2947 29.3459 39.3188 30.0532 40.1749 30.94Z" fill="black"/>
</svg>
