<svg width="124" height="124" viewBox="0 0 124 124" fill="none" xmlns="http://www.w3.org/2000/svg">
<path d="M44.5664 13.7832C25.4089 13.7832 9.87941 29.3127 9.87941 48.4702C9.87475 53.7676 11.0855 58.9955 13.4186 63.7515C15.7516 68.5075 19.1447 72.6648 23.3367 75.9036C21.0555 73.0578 19.6249 69.6278 19.2097 66.0042C18.7946 62.3806 19.4119 58.7135 20.9904 55.4255C22.5689 52.1375 25.0443 49.3624 28.1315 47.4202C31.2186 45.478 34.7918 44.4477 38.4391 44.448H46.6665C50.7329 44.448 54.6328 42.8327 57.5082 39.9573C60.3836 37.0819 61.9989 33.182 61.9989 29.1156C61.9989 25.0492 60.3836 21.1493 57.5082 18.274C54.6328 15.3986 50.7329 13.7832 46.6665 13.7832H44.5664Z" stroke="black" stroke-width="9.35455" stroke-linecap="round" stroke-linejoin="round"/>
<path d="M79.4337 13.7832C98.5913 13.7832 114.121 29.3127 114.121 48.4702C114.125 53.7676 112.915 58.9955 110.582 63.7515C108.249 68.5075 104.855 72.6648 100.663 75.9036C102.945 73.0578 104.375 69.6278 104.79 66.0042C105.206 62.3806 104.588 58.7135 103.01 55.4255C101.431 52.1375 98.9558 49.3624 95.8687 47.4202C92.7815 45.478 89.2084 44.4477 85.5611 44.448H77.3336C73.2672 44.448 69.3674 42.8327 66.492 39.9573C63.6166 37.0819 62.0012 33.182 62.0012 29.1156C62.0012 25.0492 63.6166 21.1493 66.492 18.274C69.3674 15.3986 73.2672 13.7832 77.3336 13.7832H79.4337Z" stroke="black" stroke-width="9.35455" stroke-linecap="round" stroke-linejoin="round"/>
<path d="M23.3364 75.9068L54.5708 107.139C55.546 108.115 56.7041 108.889 57.9788 109.418C59.2536 109.946 60.62 110.218 61.9999 110.218C63.3798 110.218 64.7462 109.946 66.021 109.418C67.2957 108.889 68.4538 108.115 69.429 107.139L100.663 75.9043" stroke="black" stroke-width="9.35455" stroke-linecap="round" stroke-linejoin="round"/>
<path d="M27.8445 80.4156C37.4805 90.0541 53.1091 90.0541 62.7476 80.4156L76.5736 66.5896C81.3012 61.86 83.957 55.4465 83.957 48.7592V44.4497" stroke="black" stroke-width="9.35455" stroke-linecap="round" stroke-linejoin="round"/>
<path d="M63.246 79.9173L49.9184 66.5896C45.1898 61.8604 42.5331 55.4468 42.5325 48.7592V44.4497" stroke="black" stroke-width="9.35455" stroke-linecap="round" stroke-linejoin="round"/>
</svg>
