<svg width="66" height="66" viewBox="0 0 66 66" fill="none" xmlns="http://www.w3.org/2000/svg">
<path d="M11.125 2.375H54.875C59.7225 2.375 63.625 6.2775 63.625 11.125V54.875C63.625 59.7225 59.7225 63.625 54.875 63.625H11.125C6.2775 63.625 2.375 59.7225 2.375 54.875V11.125C2.375 6.2775 6.2775 2.375 11.125 2.375Z" stroke="white" stroke-width="4.375" stroke-linecap="round" stroke-linejoin="round"/>
<path d="M15.5 15.5H19.875" stroke="white" stroke-width="4.375" stroke-linecap="round" stroke-linejoin="round"/>
<path d="M24.25 19.875C23.0897 19.875 21.9769 19.4141 21.1564 18.5936C20.3359 17.7731 19.875 16.6603 19.875 15.5C19.875 14.3397 20.3359 13.2269 21.1564 12.4064C21.9769 11.5859 23.0897 11.125 24.25 11.125C24.8245 11.125 25.3934 11.2382 25.9242 11.458C26.455 11.6779 26.9373 12.0002 27.3436 12.4064C27.7498 12.8127 28.0721 13.295 28.292 13.8258C28.5118 14.3566 28.625 14.9255 28.625 15.5C28.625 16.0745 28.5118 16.6434 28.292 17.1742C28.0721 17.705 27.7498 18.1873 27.3436 18.5936C26.9373 18.9998 26.455 19.3221 25.9242 19.542C25.3934 19.7618 24.8245 19.875 24.25 19.875Z" stroke="white" stroke-width="4.375" stroke-linecap="round" stroke-linejoin="round"/>
<path d="M28.625 15.5001L50.5 15.5" stroke="white" stroke-width="4.375" stroke-linecap="round" stroke-linejoin="round"/>
<path d="M50.5 33H46.125" stroke="white" stroke-width="4.375" stroke-linecap="round" stroke-linejoin="round"/>
<path d="M41.75 37.375C42.9103 37.375 44.0231 36.9141 44.8436 36.0936C45.6641 35.2731 46.125 34.1603 46.125 33C46.125 31.8397 45.6641 30.7269 44.8436 29.9064C44.0231 29.0859 42.9103 28.625 41.75 28.625C40.5897 28.625 39.4769 29.0859 38.6564 29.9064C37.8359 30.7269 37.375 31.8397 37.375 33C37.375 34.1603 37.8359 35.2731 38.6564 36.0936C39.4769 36.9141 40.5897 37.375 41.75 37.375Z" stroke="white" stroke-width="4.375" stroke-linecap="round" stroke-linejoin="round"/>
<path d="M37.375 33.0001L15.5 33" stroke="white" stroke-width="4.375" stroke-linecap="round" stroke-linejoin="round"/>
<path d="M15.5 50.5H19.875" stroke="white" stroke-width="4.375" stroke-linecap="round" stroke-linejoin="round"/>
<path d="M24.25 54.875C23.0897 54.875 21.9769 54.4141 21.1564 53.5936C20.3359 52.7731 19.875 51.6603 19.875 50.5C19.875 49.3397 20.3359 48.2269 21.1564 47.4064C21.9769 46.5859 23.0897 46.125 24.25 46.125C24.8245 46.125 25.3934 46.2382 25.9242 46.458C26.455 46.6779 26.9373 47.0002 27.3436 47.4064C27.7498 47.8127 28.0721 48.295 28.292 48.8258C28.5118 49.3566 28.625 49.9255 28.625 50.5C28.625 51.0745 28.5118 51.6434 28.292 52.1742C28.0721 52.705 27.7498 53.1873 27.3436 53.5936C26.9373 53.9998 26.455 54.3221 25.9242 54.542C25.3934 54.7618 24.8245 54.875 24.25 54.875Z" stroke="white" stroke-width="4.375" stroke-linecap="round" stroke-linejoin="round"/>
<path d="M28.625 50.5001L50.5 50.5" stroke="white" stroke-width="4.375" stroke-linecap="round" stroke-linejoin="round"/>
</svg>
