<svg width="114" height="113" viewBox="0 0 114 113" fill="none" xmlns="http://www.w3.org/2000/svg">
<path d="M51.537 58.485C51.537 61.5021 53.9829 63.9479 57 63.9479C60.0171 63.9479 62.463 61.5021 62.463 58.485V32.8484C62.463 29.8313 60.0171 27.3854 57 27.3854C53.9829 27.3854 51.537 29.8313 51.537 32.8484V58.485ZM57 78.1667C58.5478 78.1667 59.8462 77.6467 60.8951 76.6067C61.944 75.5667 62.4666 74.2811 62.463 72.75C62.4593 71.2189 61.9349 69.9333 60.8896 68.8933C59.8444 67.8533 58.5478 67.3333 57 67.3333C55.4522 67.3333 54.1556 67.8533 53.1104 68.8933C52.0651 69.9333 51.5407 71.2189 51.537 72.75C51.5334 74.2811 52.0578 75.5685 53.1104 76.6121C54.1629 77.6557 55.4594 78.1739 57 78.1667ZM60.9849 111.049C58.7787 113.236 55.2214 113.236 53.0151 111.049L2.05334 60.519C-0.17965 58.3049 -0.179658 54.6951 2.05333 52.481L53.0151 1.95116C55.2214 -0.236418 58.7787 -0.236426 60.9849 1.95116L111.947 52.481C114.18 54.6951 114.18 58.3049 111.947 60.519L60.9849 111.049ZM53.0151 95.8822C55.2214 98.0698 58.7787 98.0698 60.9849 95.8822L96.6504 60.519C98.8834 58.3049 98.8834 54.6951 96.6504 52.481L60.9849 17.1178C58.7787 14.9302 55.2214 14.9302 53.0151 17.1178L17.3496 52.481C15.1166 54.6951 15.1166 58.3049 17.3496 60.519L53.0151 95.8822Z" fill="black"/>
</svg>
